<svg width="28" height="28" viewBox="0 0 28 28" fill="none" xmlns="http://www.w3.org/2000/svg">
<path d="M10.6667 14.8333V18.1667M17.3333 13.1667V18.1667M14 9.83333V18.1667M10.5 21.5H17.5C18.9001 21.5 19.6002 21.5 20.135 21.2275C20.6054 20.9878 20.9878 20.6054 21.2275 20.135C21.5 19.6002 21.5 18.9001 21.5 17.5V10.5C21.5 9.09987 21.5 8.3998 21.2275 7.86502C20.9878 7.39462 20.6054 7.01217 20.135 6.77248C19.6002 6.5 18.9001 6.5 17.5 6.5H10.5C9.09987 6.5 8.3998 6.5 7.86502 6.77248C7.39462 7.01217 7.01217 7.39462 6.77248 7.86502C6.5 8.3998 6.5 9.09987 6.5 10.5V17.5C6.5 18.9001 6.5 19.6002 6.77248 20.135C7.01217 20.6054 7.39462 20.9878 7.86502 21.2275C8.3998 21.5 9.09987 21.5 10.5 21.5Z" stroke="#667085" stroke-width="2" stroke-linecap="round" stroke-linejoin="round"/>
</svg>
