<svg width="88" height="22" viewBox="0 0 88 22" fill="none" xmlns="http://www.w3.org/2000/svg">
<g style="mix-blend-mode:multiply">
<rect width="88" height="22" rx="11" fill="#FEF3F2"/>
<path d="M14.5 8.5L9.5 13.5M9.5 8.5L14.5 13.5" stroke="#F04438" stroke-width="1.5" stroke-linecap="round" stroke-linejoin="round"/>
<path d="M30.6019 9.1108H29.2724C29.2212 8.8267 29.1261 8.5767 28.9869 8.3608C28.8477 8.14489 28.6772 7.96165 28.4755 7.81108C28.2738 7.66051 28.0479 7.54687 27.7979 7.47017C27.5508 7.39347 27.288 7.35511 27.0096 7.35511C26.5067 7.35511 26.0565 7.48153 25.6587 7.73438C25.2638 7.98722 24.9513 8.35795 24.7212 8.84659C24.494 9.33523 24.3803 9.93182 24.3803 10.6364C24.3803 11.3466 24.494 11.946 24.7212 12.4347C24.9513 12.9233 25.2653 13.2926 25.663 13.5426C26.0607 13.7926 26.5082 13.9176 27.0053 13.9176C27.2809 13.9176 27.5423 13.8807 27.7894 13.8068C28.0394 13.7301 28.2653 13.6179 28.467 13.4702C28.6687 13.3224 28.8391 13.142 28.9783 12.929C29.1204 12.7131 29.2184 12.4659 29.2724 12.1875L30.6019 12.1918C30.5309 12.6207 30.3931 13.0156 30.1886 13.3764C29.9869 13.7344 29.7269 14.044 29.4087 14.3054C29.0934 14.5639 28.7326 14.7642 28.3263 14.9062C27.9201 15.0483 27.4769 15.1193 26.9968 15.1193C26.2411 15.1193 25.5678 14.9403 24.9769 14.5824C24.386 14.2216 23.9201 13.706 23.5792 13.0355C23.2411 12.3651 23.0721 11.5653 23.0721 10.6364C23.0721 9.70455 23.2425 8.90483 23.5835 8.23722C23.9244 7.56676 24.3903 7.05256 24.9812 6.6946C25.5721 6.33381 26.244 6.15341 26.9968 6.15341C27.4599 6.15341 27.8917 6.22017 28.2923 6.35369C28.6957 6.48437 29.0579 6.67756 29.3789 6.93324C29.6999 7.18608 29.9656 7.49574 30.1758 7.86222C30.386 8.22585 30.5281 8.64205 30.6019 9.1108ZM33.9801 15.1449C33.5653 15.1449 33.1903 15.0682 32.8551 14.9148C32.5199 14.7585 32.2543 14.5327 32.0582 14.2372C31.8651 13.9418 31.7685 13.5795 31.7685 13.1506C31.7685 12.7812 31.8395 12.4773 31.9815 12.2386C32.1236 12 32.3153 11.8111 32.5568 11.6719C32.7983 11.5327 33.0682 11.4276 33.3665 11.3565C33.6648 11.2855 33.9688 11.2315 34.2784 11.1946C34.6705 11.1491 34.9886 11.1122 35.233 11.0838C35.4773 11.0526 35.6548 11.0028 35.7656 10.9347C35.8764 10.8665 35.9318 10.7557 35.9318 10.6023V10.5724C35.9318 10.2003 35.8267 9.91193 35.6165 9.70739C35.4091 9.50284 35.0994 9.40057 34.6875 9.40057C34.2585 9.40057 33.9205 9.49574 33.6733 9.68608C33.429 9.87358 33.2599 10.0824 33.1662 10.3125L31.9688 10.0398C32.1108 9.64205 32.3182 9.32102 32.5909 9.0767C32.8665 8.82955 33.1832 8.65057 33.5412 8.53977C33.8991 8.42614 34.2756 8.36932 34.6705 8.36932C34.9318 8.36932 35.2088 8.40057 35.5014 8.46307C35.7969 8.52273 36.0724 8.63352 36.3281 8.79545C36.5866 8.95739 36.7983 9.18892 36.9631 9.49006C37.1278 9.78835 37.2102 10.1761 37.2102 10.6534V15H35.9659V14.1051H35.9148C35.8324 14.2699 35.7088 14.4318 35.544 14.5909C35.3793 14.75 35.1676 14.8821 34.9091 14.9872C34.6506 15.0923 34.3409 15.1449 33.9801 15.1449ZM34.2571 14.1222C34.6094 14.1222 34.9105 14.0526 35.1605 13.9134C35.4134 13.7741 35.6051 13.5923 35.7358 13.3679C35.8693 13.1406 35.9361 12.8977 35.9361 12.6392V11.7955C35.8906 11.8409 35.8026 11.8835 35.6719 11.9233C35.544 11.9602 35.3977 11.9929 35.233 12.0213C35.0682 12.0469 34.9077 12.071 34.7514 12.0938C34.5952 12.1136 34.4645 12.1307 34.3594 12.1449C34.1122 12.1761 33.8864 12.2287 33.6818 12.3026C33.4801 12.3764 33.3182 12.483 33.196 12.6222C33.0767 12.7585 33.017 12.9403 33.017 13.1676C33.017 13.483 33.1335 13.7216 33.3665 13.8835C33.5994 14.0426 33.8963 14.1222 34.2571 14.1222ZM40.1815 11.1136V15H38.9073V8.45455H40.1303V9.51989H40.2113C40.3619 9.1733 40.5977 8.89489 40.9187 8.68466C41.2425 8.47443 41.6502 8.36932 42.1417 8.36932C42.5877 8.36932 42.9783 8.46307 43.3136 8.65057C43.6488 8.83523 43.9087 9.1108 44.0934 9.47727C44.2781 9.84375 44.3704 10.2969 44.3704 10.8366V15H43.0962V10.9901C43.0962 10.5156 42.9727 10.1449 42.7255 9.87784C42.4783 9.60795 42.1388 9.47301 41.707 9.47301C41.4116 9.47301 41.1488 9.53693 40.9187 9.66477C40.6914 9.79261 40.511 9.98011 40.3775 10.2273C40.2468 10.4716 40.1815 10.767 40.1815 11.1136ZM48.8363 15.1321C48.2028 15.1321 47.6573 14.9886 47.1999 14.7017C46.7454 14.4119 46.396 14.0128 46.1516 13.5043C45.9073 12.9957 45.7852 12.4134 45.7852 11.7571C45.7852 11.0923 45.9102 10.5057 46.1602 9.99716C46.4102 9.4858 46.7624 9.08665 47.217 8.79972C47.6715 8.51278 48.207 8.36932 48.8235 8.36932C49.3207 8.36932 49.7638 8.46165 50.1531 8.64631C50.5423 8.82812 50.8562 9.08381 51.0948 9.41335C51.3363 9.7429 51.4798 10.1278 51.5252 10.5682H50.2852C50.217 10.2614 50.0607 9.99716 49.8164 9.77557C49.5749 9.55398 49.2511 9.44318 48.8448 9.44318C48.4897 9.44318 48.1786 9.53693 47.9116 9.72443C47.6474 9.90909 47.4414 10.1733 47.2937 10.517C47.146 10.858 47.0721 11.2614 47.0721 11.7273C47.0721 12.2045 47.1445 12.6165 47.2894 12.9631C47.4343 13.3097 47.6388 13.5781 47.9031 13.7685C48.1701 13.9588 48.484 14.054 48.8448 14.054C49.0863 14.054 49.305 14.0099 49.5011 13.9219C49.6999 13.831 49.8661 13.7017 49.9996 13.5341C50.136 13.3665 50.2312 13.1648 50.2852 12.929H51.5252C51.4798 13.3523 51.342 13.7301 51.1119 14.0625C50.8817 14.3949 50.5735 14.6562 50.1871 14.8466C49.8036 15.0369 49.3533 15.1321 48.8363 15.1321ZM55.7088 15.1321C55.0639 15.1321 54.5085 14.9943 54.0426 14.7188C53.5795 14.4403 53.2216 14.0497 52.9688 13.5469C52.7188 13.0412 52.5938 12.4489 52.5938 11.7699C52.5938 11.0994 52.7188 10.5085 52.9688 9.99716C53.2216 9.4858 53.5739 9.08665 54.0256 8.79972C54.4801 8.51278 55.0114 8.36932 55.6193 8.36932C55.9886 8.36932 56.3466 8.4304 56.6932 8.55256C57.0398 8.67472 57.3509 8.86648 57.6264 9.12784C57.902 9.3892 58.1193 9.72869 58.2784 10.1463C58.4375 10.5611 58.517 11.0653 58.517 11.6591V12.1108H53.3139V11.1562H57.2685C57.2685 10.821 57.2003 10.5241 57.0639 10.2656C56.9276 10.0043 56.7358 9.7983 56.4886 9.64773C56.2443 9.49716 55.9574 9.42188 55.6278 9.42188C55.2699 9.42188 54.9574 9.50994 54.6903 9.68608C54.4261 9.85937 54.2216 10.0866 54.0767 10.3679C53.9347 10.6463 53.8636 10.9489 53.8636 11.2756V12.0213C53.8636 12.4588 53.9403 12.831 54.0938 13.1378C54.25 13.4446 54.4673 13.679 54.7457 13.8409C55.0241 14 55.3494 14.0795 55.7216 14.0795C55.9631 14.0795 56.1832 14.0455 56.3821 13.9773C56.581 13.9062 56.7528 13.8011 56.8977 13.6619C57.0426 13.5227 57.1534 13.3509 57.2301 13.1463L58.4361 13.3636C58.3395 13.7187 58.1662 14.0298 57.9162 14.2969C57.669 14.5611 57.358 14.767 56.983 14.9148C56.6108 15.0597 56.1861 15.1321 55.7088 15.1321ZM61.2049 6.27273V15H59.9308V6.27273H61.2049ZM64.1932 6.27273V15H62.919V6.27273H64.1932ZM68.7283 15.1321C68.0835 15.1321 67.5281 14.9943 67.0621 14.7188C66.5991 14.4403 66.2411 14.0497 65.9883 13.5469C65.7383 13.0412 65.6133 12.4489 65.6133 11.7699C65.6133 11.0994 65.7383 10.5085 65.9883 9.99716C66.2411 9.4858 66.5934 9.08665 67.0451 8.79972C67.4996 8.51278 68.0309 8.36932 68.6388 8.36932C69.0082 8.36932 69.3661 8.4304 69.7127 8.55256C70.0593 8.67472 70.3704 8.86648 70.646 9.12784C70.9215 9.3892 71.1388 9.72869 71.2979 10.1463C71.457 10.5611 71.5366 11.0653 71.5366 11.6591V12.1108H66.3335V11.1562H70.288C70.288 10.821 70.2198 10.5241 70.0835 10.2656C69.9471 10.0043 69.7553 9.7983 69.5082 9.64773C69.2638 9.49716 68.9769 9.42188 68.6474 9.42188C68.2894 9.42188 67.9769 9.50994 67.7099 9.68608C67.4457 9.85937 67.2411 10.0866 67.0962 10.3679C66.9542 10.6463 66.8832 10.9489 66.8832 11.2756V12.0213C66.8832 12.4588 66.9599 12.831 67.1133 13.1378C67.2695 13.4446 67.4869 13.679 67.7653 13.8409C68.0437 14 68.369 14.0795 68.7411 14.0795C68.9826 14.0795 69.2028 14.0455 69.4016 13.9773C69.6005 13.9062 69.7724 13.8011 69.9173 13.6619C70.0621 13.5227 70.1729 13.3509 70.2496 13.1463L71.4556 13.3636C71.359 13.7187 71.1857 14.0298 70.9357 14.2969C70.6886 14.5611 70.3775 14.767 70.0025 14.9148C69.6303 15.0597 69.2056 15.1321 68.7283 15.1321ZM75.4006 15.1278C74.8722 15.1278 74.4006 14.9929 73.9858 14.723C73.5739 14.4503 73.25 14.0625 73.0142 13.5597C72.7813 13.054 72.6648 12.4474 72.6648 11.7401C72.6648 11.0327 72.7827 10.4276 73.0185 9.92472C73.2571 9.42187 73.5838 9.03693 73.9986 8.76989C74.4134 8.50284 74.8835 8.36932 75.4091 8.36932C75.8153 8.36932 76.142 8.4375 76.3892 8.57386C76.6392 8.70739 76.8324 8.86364 76.9688 9.04261C77.108 9.22159 77.2159 9.37926 77.2926 9.51562H77.3693V6.27273H78.6435V15H77.3991V13.9815H77.2926C77.2159 14.1207 77.1051 14.2798 76.9602 14.4588C76.8182 14.6378 76.6222 14.794 76.3722 14.9276C76.1222 15.0611 75.7983 15.1278 75.4006 15.1278ZM75.6818 14.0412C76.0483 14.0412 76.358 13.9446 76.6108 13.7514C76.8665 13.5554 77.0597 13.2841 77.1903 12.9375C77.3239 12.5909 77.3906 12.1875 77.3906 11.7273C77.3906 11.2727 77.3253 10.875 77.1946 10.5341C77.0639 10.1932 76.8722 9.92756 76.6193 9.73722C76.3665 9.54687 76.054 9.4517 75.6818 9.4517C75.2983 9.4517 74.9787 9.55114 74.723 9.75C74.4673 9.94886 74.2741 10.2202 74.1435 10.5639C74.0156 10.9077 73.9517 11.2955 73.9517 11.7273C73.9517 12.1648 74.017 12.5582 74.1477 12.9077C74.2784 13.2571 74.4716 13.5341 74.7273 13.7386C74.9858 13.9403 75.304 14.0412 75.6818 14.0412Z" fill="#B42318"/>
</g>
</svg>
