<svg width="36" height="36" viewBox="0 0 36 36" fill="none" xmlns="http://www.w3.org/2000/svg">
<rect width="36" height="36" rx="8" fill="#EEEEFF"/>
<path d="M18.8334 17.1667H22.8334C23.7668 17.1667 24.2335 17.1667 24.59 17.3483C24.9036 17.5081 25.1586 17.7631 25.3184 18.0767C25.5 18.4332 25.5 18.8999 25.5 19.8333V25.5M18.8334 25.5V13.1667C18.8334 12.2332 18.8334 11.7665 18.6517 11.41C18.4919 11.0964 18.2369 10.8414 17.9233 10.6817C17.5668 10.5 17.1001 10.5 16.1667 10.5H13.1667C12.2333 10.5 11.7666 10.5 11.41 10.6817C11.0964 10.8414 10.8415 11.0964 10.6817 11.41C10.5 11.7665 10.5 12.2332 10.5 13.1667V25.5M26.3334 25.5H9.66669M13.4167 13.8333H15.9167M13.4167 17.1667H15.9167M13.4167 20.5H15.9167" stroke="#5653FC" stroke-width="2" stroke-linecap="round" stroke-linejoin="round"/>
</svg>
