<svg width="36" height="36" viewBox="0 0 36 36" fill="none" xmlns="http://www.w3.org/2000/svg">
<rect width="36" height="36" rx="8" fill="#EEEEFF"/>
<path d="M26.3333 25.5V23.8333C26.3333 22.2801 25.271 20.9751 23.8333 20.605M20.9166 10.7423C22.1382 11.2368 23 12.4344 23 13.8333C23 15.2322 22.1382 16.4299 20.9166 16.9244M22.1666 25.5C22.1666 23.9469 22.1666 23.1703 21.9129 22.5577C21.5746 21.741 20.9257 21.092 20.1089 20.7537C19.4963 20.5 18.7198 20.5 17.1666 20.5H14.6666C13.1135 20.5 12.3369 20.5 11.7243 20.7537C10.9076 21.092 10.2587 21.741 9.92036 22.5577C9.66663 23.1703 9.66663 23.9469 9.66663 25.5M19.25 13.8333C19.25 15.6743 17.7576 17.1667 15.9166 17.1667C14.0757 17.1667 12.5833 15.6743 12.5833 13.8333C12.5833 11.9924 14.0757 10.5 15.9166 10.5C17.7576 10.5 19.25 11.9924 19.25 13.8333Z" stroke="#5653FC" stroke-width="2" stroke-linecap="round" stroke-linejoin="round"/>
</svg>
