<svg width="74" height="22" viewBox="0 0 74 22" fill="none" xmlns="http://www.w3.org/2000/svg">
<g style="mix-blend-mode:multiply">
<rect width="74" height="22" rx="11" fill="#ECFDF3"/>
<g clip-path="url(#clip0_947_53846)">
<path d="M12 9V11M12 13H12.005M17 11C17 13.7614 14.7614 16 12 16C9.23858 16 7 13.7614 7 11C7 8.23858 9.23858 6 12 6C14.7614 6 17 8.23858 17 11Z" stroke="#12B76A" stroke-width="1.5" stroke-linecap="round" stroke-linejoin="round"/>
</g>
<path d="M23.3787 15V6.27273H28.8503V7.40625H24.6955V10.0653H28.5648V11.1946H24.6955V13.8665H28.9015V15H23.3787ZM31.5126 8.45455L32.9572 11.0028L34.4146 8.45455H35.8081L33.7669 11.7273L35.8251 15H34.4316L32.9572 12.554L31.487 15H30.0893L32.1262 11.7273L30.1149 8.45455H31.5126ZM37.1163 17.4545V8.45455H38.3606V9.51562H38.4672C38.541 9.37926 38.6475 9.22159 38.7868 9.04261C38.926 8.86364 39.1191 8.70739 39.3663 8.57386C39.6135 8.4375 39.9402 8.36932 40.3464 8.36932C40.8748 8.36932 41.3464 8.50284 41.7612 8.76989C42.176 9.03693 42.5012 9.42187 42.737 9.92472C42.9757 10.4276 43.095 11.0327 43.095 11.7401C43.095 12.4474 42.9771 13.054 42.7413 13.5597C42.5055 14.0625 42.1816 14.4503 41.7697 14.723C41.3578 14.9929 40.8876 15.1278 40.3592 15.1278C39.9615 15.1278 39.6362 15.0611 39.3833 14.9276C39.1333 14.794 38.9373 14.6378 38.7953 14.4588C38.6532 14.2798 38.5439 14.1207 38.4672 13.9815H38.3904V17.4545H37.1163ZM38.3649 11.7273C38.3649 12.1875 38.4316 12.5909 38.5652 12.9375C38.6987 13.2841 38.8919 13.5554 39.1447 13.7514C39.3975 13.9446 39.7072 14.0412 40.0737 14.0412C40.4544 14.0412 40.7725 13.9403 41.0282 13.7386C41.2839 13.5341 41.4771 13.2571 41.6078 12.9077C41.7413 12.5582 41.8081 12.1648 41.8081 11.7273C41.8081 11.2955 41.7427 10.9077 41.612 10.5639C41.4842 10.2202 41.291 9.94886 41.0325 9.75C40.7768 9.55114 40.4572 9.4517 40.0737 9.4517C39.7044 9.4517 39.3919 9.54687 39.1362 9.73722C38.8833 9.92756 38.6916 10.1932 38.5609 10.5341C38.4302 10.875 38.3649 11.2727 38.3649 11.7273ZM44.5225 15V8.45455H45.7967V15H44.5225ZM45.166 7.4446C44.9444 7.4446 44.7541 7.37074 44.595 7.22301C44.4387 7.07244 44.3606 6.89347 44.3606 6.68608C44.3606 6.47585 44.4387 6.29687 44.595 6.14915C44.7541 5.99858 44.9444 5.9233 45.166 5.9233C45.3876 5.9233 45.5765 5.99858 45.7328 6.14915C45.8919 6.29687 45.9714 6.47585 45.9714 6.68608C45.9714 6.89347 45.8919 7.07244 45.7328 7.22301C45.5765 7.37074 45.3876 7.4446 45.166 7.4446ZM47.5108 15V8.45455H48.7424V9.49432H48.8105C48.9299 9.14205 49.1401 8.86506 49.4412 8.66335C49.7452 8.45881 50.089 8.35653 50.4725 8.35653C50.552 8.35653 50.6458 8.35937 50.7537 8.36506C50.8645 8.37074 50.9512 8.37784 51.0137 8.38636V9.60511C50.9625 9.59091 50.8716 9.57528 50.7409 9.55824C50.6103 9.53835 50.4796 9.52841 50.3489 9.52841C50.0478 9.52841 49.7793 9.59233 49.5435 9.72017C49.3105 9.84517 49.1259 10.0199 48.9895 10.2443C48.8532 10.4659 48.785 10.7187 48.785 11.0028V15H47.5108ZM54.7029 15.1321C54.0581 15.1321 53.5027 14.9943 53.0368 14.7188C52.5737 14.4403 52.2157 14.0497 51.9629 13.5469C51.7129 13.0412 51.5879 12.4489 51.5879 11.7699C51.5879 11.0994 51.7129 10.5085 51.9629 9.99716C52.2157 9.4858 52.568 9.08665 53.0197 8.79972C53.4743 8.51278 54.0055 8.36932 54.6135 8.36932C54.9828 8.36932 55.3407 8.4304 55.6873 8.55256C56.0339 8.67472 56.345 8.86648 56.6206 9.12784C56.8961 9.3892 57.1135 9.72869 57.2726 10.1463C57.4316 10.5611 57.5112 11.0653 57.5112 11.6591V12.1108H52.3081V11.1562H56.2626C56.2626 10.821 56.1944 10.5241 56.0581 10.2656C55.9217 10.0043 55.7299 9.7983 55.4828 9.64773C55.2385 9.49716 54.9515 9.42188 54.622 9.42188C54.264 9.42188 53.9515 9.50994 53.6845 9.68608C53.4203 9.85937 53.2157 10.0866 53.0708 10.3679C52.9288 10.6463 52.8578 10.9489 52.8578 11.2756V12.0213C52.8578 12.4588 52.9345 12.831 53.0879 13.1378C53.2441 13.4446 53.4615 13.679 53.7399 13.8409C54.0183 14 54.3436 14.0795 54.7157 14.0795C54.9572 14.0795 55.1774 14.0455 55.3762 13.9773C55.5751 13.9062 55.747 13.8011 55.8919 13.6619C56.0368 13.5227 56.1475 13.3509 56.2243 13.1463L57.4302 13.3636C57.3336 13.7187 57.1603 14.0298 56.9103 14.2969C56.6632 14.5611 56.3521 14.767 55.9771 14.9148C55.6049 15.0597 55.1802 15.1321 54.7029 15.1321ZM61.3752 15.1278C60.8468 15.1278 60.3752 14.9929 59.9604 14.723C59.5485 14.4503 59.2246 14.0625 58.9888 13.5597C58.7559 13.054 58.6394 12.4474 58.6394 11.7401C58.6394 11.0327 58.7573 10.4276 58.9931 9.92472C59.2317 9.42187 59.5584 9.03693 59.9732 8.76989C60.388 8.50284 60.8581 8.36932 61.3837 8.36932C61.79 8.36932 62.1167 8.4375 62.3638 8.57386C62.6138 8.70739 62.807 8.86364 62.9434 9.04261C63.0826 9.22159 63.1905 9.37926 63.2672 9.51562H63.3439V6.27273H64.6181V15H63.3738V13.9815H63.2672C63.1905 14.1207 63.0797 14.2798 62.9348 14.4588C62.7928 14.6378 62.5968 14.794 62.3468 14.9276C62.0968 15.0611 61.7729 15.1278 61.3752 15.1278ZM61.6564 14.0412C62.0229 14.0412 62.3326 13.9446 62.5854 13.7514C62.8411 13.5554 63.0343 13.2841 63.165 12.9375C63.2985 12.5909 63.3652 12.1875 63.3652 11.7273C63.3652 11.2727 63.2999 10.875 63.1692 10.5341C63.0385 10.1932 62.8468 9.92756 62.5939 9.73722C62.3411 9.54687 62.0286 9.4517 61.6564 9.4517C61.2729 9.4517 60.9533 9.55114 60.6976 9.75C60.4419 9.94886 60.2488 10.2202 60.1181 10.5639C59.9902 10.9077 59.9263 11.2955 59.9263 11.7273C59.9263 12.1648 59.9917 12.5582 60.1223 12.9077C60.253 13.2571 60.4462 13.5341 60.7019 13.7386C60.9604 13.9403 61.2786 14.0412 61.6564 14.0412Z" fill="#027A48"/>
</g>
<defs>
<clipPath id="clip0_947_53846">
<rect width="12" height="12" fill="white" transform="translate(6 5)"/>
</clipPath>
</defs>
</svg>
