<svg width="56" height="56" viewBox="0 0 56 56" fill="none" xmlns="http://www.w3.org/2000/svg">
<rect x="4" y="4" width="48" height="48" rx="24" fill="#CCCBFE"/>
<path d="M19.076 23.4828L23.364 26.5457C23.5872 26.705 23.6987 26.7847 23.8155 26.8031C23.9182 26.8192 24.0234 26.8029 24.1165 26.7565C24.2222 26.7037 24.3045 26.594 24.469 26.3747L25.3751 25.1665C25.4216 25.1045 25.4449 25.0735 25.4722 25.0467C25.4965 25.023 25.5232 25.0017 25.5517 24.9834C25.5839 24.9627 25.6193 24.947 25.6902 24.9155L29.5588 23.1961C29.7192 23.1248 29.7993 23.0892 29.8598 23.0335C29.9133 22.9843 29.9554 22.924 29.9832 22.8568C30.0146 22.7809 30.0204 22.6934 30.0321 22.5183L30.3154 18.2694M29.5 29.5L32.116 30.6211C32.4195 30.7512 32.5713 30.8163 32.6517 30.9243C32.7222 31.0191 32.7569 31.1358 32.7496 31.2537C32.7413 31.3881 32.6497 31.5255 32.4665 31.8002L31.2375 33.6438C31.1507 33.774 31.1072 33.8391 31.0499 33.8863C30.9991 33.928 30.9406 33.9593 30.8777 33.9784C30.8067 34 30.7284 34 30.5719 34H28.5766C28.3693 34 28.2656 34 28.1774 33.9653C28.0995 33.9347 28.0305 33.885 27.9768 33.8208C27.916 33.7481 27.8832 33.6497 27.8177 33.453L27.1048 31.3144C27.0661 31.1983 27.0468 31.1403 27.0417 31.0814C27.0372 31.0291 27.0409 30.9764 27.0528 30.9253C27.0662 30.8677 27.0935 30.813 27.1482 30.7036L27.6897 29.6206C27.7997 29.4005 27.8547 29.2905 27.9395 29.2222C28.0141 29.162 28.1046 29.1246 28.1999 29.1143C28.3081 29.1027 28.4248 29.1416 28.6582 29.2194L29.5 29.5ZM38 28C38 33.5228 33.5228 38 28 38C22.4772 38 18 33.5228 18 28C18 22.4772 22.4772 18 28 18C33.5228 18 38 22.4772 38 28Z" stroke="#5653FC" stroke-width="2" stroke-linecap="round" stroke-linejoin="round"/>
<rect x="4" y="4" width="48" height="48" rx="24" stroke="#DDDDFE" stroke-width="8"/>
</svg>
