<svg width="56" height="56" viewBox="0 0 56 56" fill="none" xmlns="http://www.w3.org/2000/svg">
<rect x="4" y="4" width="48" height="48" rx="24" fill="#CCCBFE"/>
<path d="M29.8939 28.5808L32.5342 29.7124C32.6642 29.768 32.8143 29.8323 32.9397 29.8995C33.0808 29.9751 33.2866 30.1025 33.4539 30.3273C33.6655 30.6116 33.7696 30.9617 33.7477 31.3155C33.7304 31.5951 33.6276 31.8143 33.5506 31.9547C33.4823 32.0795 33.3917 32.2153 33.3132 32.3329C32.8225 33.0692 32.381 34.0866 31.6848 34.6588C31.5325 34.784 31.357 34.878 31.1683 34.9353C30.2961 35.2002 28.7076 35.2484 27.8114 34.8959C27.5777 34.804 27.3708 34.6549 27.2097 34.4623C26.6052 33.7393 26.4447 32.4969 26.1561 31.6306L26.1484 31.6079C26.12 31.5246 26.0614 31.3527 26.0454 31.1674C26.0318 31.0106 26.0431 30.8526 26.0787 30.6993C26.2262 30.0637 26.6368 29.4001 26.9664 28.8503C27.0351 28.7356 27.1415 28.581 27.3119 28.4437C27.5359 28.2631 27.8071 28.1507 28.0932 28.12C28.3108 28.0967 28.4953 28.1308 28.625 28.1633C29.051 28.2699 29.4916 28.4084 29.8939 28.5808Z" fill="#5653FC"/>
<path fill-rule="evenodd" clip-rule="evenodd" d="M28 17C21.9249 17 17 21.9249 17 28C17 34.0751 21.9249 39 28 39C34.0751 39 39 34.0751 39 28C39 21.9249 34.0751 17 28 17ZM19.5055 25.0187C19.1781 25.9517 19 26.9551 19 28C19 32.9706 23.0294 37 28 37C32.9706 37 37 32.9706 37 28C37 24.1675 34.6045 20.8945 31.2291 19.5966C31.1462 20.8422 31.5812 22.8083 30.5371 23.7694C29.4421 24.7774 27.4822 25.2136 26.1439 25.8083L25.2554 26.993C25.1855 27.0863 25.1017 27.1981 25.0197 27.2908C24.9245 27.3984 24.7781 27.544 24.5631 27.6514C24.284 27.7907 23.9683 27.8396 23.6601 27.7911C23.4228 27.7538 23.2393 27.6592 23.1159 27.5854C23.0098 27.5218 22.8961 27.4406 22.8013 27.3728L19.5055 25.0187Z" fill="#5653FC"/>
<rect x="4" y="4" width="48" height="48" rx="24" stroke="#DDDDFE" stroke-width="8"/>
</svg>
