<svg width="120" height="120" viewBox="0 0 120 120" fill="none" xmlns="http://www.w3.org/2000/svg">
<rect width="120" height="120" rx="8" fill="#F9FAFB"/>
<path d="M47.5442 80.4558L60.7373 67.2627C61.5293 66.4707 61.9253 66.0747 62.382 65.9263C62.7837 65.7958 63.2163 65.7958 63.618 65.9263C64.0747 66.0747 64.4707 66.4707 65.2627 67.2627L78.3678 80.3678M67 69L72.7373 63.2627C73.5293 62.4707 73.9253 62.0747 74.382 61.9263C74.7837 61.7958 75.2163 61.7958 75.618 61.9263C76.0747 62.0747 76.4707 62.4707 77.2627 63.2627L83 69M59 57C59 59.2091 57.2091 61 55 61C52.7909 61 51 59.2091 51 57C51 54.7909 52.7909 53 55 53C57.2091 53 59 54.7909 59 57ZM52.6 81H73.4C76.7603 81 78.4405 81 79.7239 80.346C80.8529 79.7708 81.7708 78.8529 82.346 77.7239C83 76.4405 83 74.7603 83 71.4V54.6C83 51.2397 83 49.5595 82.346 48.2761C81.7708 47.1471 80.8529 46.2292 79.7239 45.654C78.4405 45 76.7603 45 73.4 45H52.6C49.2397 45 47.5595 45 46.2761 45.654C45.1471 46.2292 44.2292 47.1471 43.654 48.2761C43 49.5595 43 51.2397 43 54.6V71.4C43 74.7603 43 76.4405 43.654 77.7239C44.2292 78.8529 45.1471 79.7708 46.2761 80.346C47.5595 81 49.2397 81 52.6 81Z" stroke="#98A2B3" stroke-width="4" stroke-linecap="round" stroke-linejoin="round"/>
</svg>
