<svg width="14" height="14" viewBox="0 0 14 14" fill="none" xmlns="http://www.w3.org/2000/svg">
<path d="M12.3337 13C12.3337 12.0696 12.3337 11.6044 12.2188 11.2259C11.9603 10.3736 11.2934 9.70669 10.4411 9.44816C10.0626 9.33333 9.59737 9.33333 8.66699 9.33333H5.33366C4.40328 9.33333 3.93809 9.33333 3.55956 9.44816C2.7073 9.70669 2.04035 10.3736 1.78182 11.2259C1.66699 11.6044 1.66699 12.0696 1.66699 13M10.0003 4C10.0003 5.65685 8.65718 7 7.00033 7C5.34347 7 4.00033 5.65685 4.00033 4C4.00033 2.34315 5.34347 1 7.00033 1C8.65718 1 10.0003 2.34315 10.0003 4Z" stroke="#344054" stroke-width="1.5" stroke-linecap="round" stroke-linejoin="round"/>
</svg>
