<svg width="143" height="38" viewBox="0 0 143 38" fill="none" xmlns="http://www.w3.org/2000/svg">
<path d="M12 27L20.6603 12H3.33975L12 27Z" fill="#42B6B3"/>
<path d="M21.7949 27L30.4552 12H13.1347L21.7949 27Z" fill="#5653FC"/>
<path d="M57.143 12.54L52.653 27H50.223L47.063 17.12C46.9763 16.88 46.8963 16.5867 46.823 16.24C46.783 16.4067 46.743 16.5633 46.703 16.71C46.663 16.8567 46.6196 16.9933 46.573 17.12L43.383 27H40.943L36.463 12.54H38.713C38.9463 12.54 39.1396 12.5967 39.293 12.71C39.453 12.8167 39.5596 12.9633 39.613 13.15L42.073 21.8C42.1263 22.0133 42.1763 22.2467 42.223 22.5C42.2763 22.7467 42.3296 23.0067 42.383 23.28C42.4363 23 42.493 22.7367 42.553 22.49C42.6196 22.2433 42.6896 22.0133 42.763 21.8L45.603 13.15C45.6563 12.9967 45.7596 12.8567 45.913 12.73C46.073 12.6033 46.2663 12.54 46.493 12.54H47.283C47.5163 12.54 47.7063 12.5967 47.853 12.71C47.9996 12.8233 48.1096 12.97 48.183 13.15L51.013 21.8C51.153 22.2133 51.2796 22.69 51.393 23.23C51.4796 22.7033 51.5763 22.2267 51.683 21.8L54.143 13.15C54.183 12.9833 54.283 12.84 54.443 12.72C54.6096 12.6 54.8063 12.54 55.033 12.54H57.143ZM61.8577 16.58C62.6177 16.58 63.3077 16.7033 63.9277 16.95C64.5543 17.1967 65.0877 17.5467 65.5277 18C65.9743 18.4533 66.3177 19.0067 66.5577 19.66C66.7977 20.3133 66.9177 21.0433 66.9177 21.85C66.9177 22.6633 66.7977 23.3967 66.5577 24.05C66.3177 24.7033 65.9743 25.26 65.5277 25.72C65.0877 26.18 64.5543 26.5333 63.9277 26.78C63.3077 27.0267 62.6177 27.15 61.8577 27.15C61.091 27.15 60.3943 27.0267 59.7677 26.78C59.141 26.5333 58.6043 26.18 58.1577 25.72C57.7177 25.26 57.3743 24.7033 57.1277 24.05C56.8877 23.3967 56.7677 22.6633 56.7677 21.85C56.7677 21.0433 56.8877 20.3133 57.1277 19.66C57.3743 19.0067 57.7177 18.4533 58.1577 18C58.6043 17.5467 59.141 17.1967 59.7677 16.95C60.3943 16.7033 61.091 16.58 61.8577 16.58ZM61.8577 25.25C62.711 25.25 63.341 24.9633 63.7477 24.39C64.161 23.8167 64.3677 22.9767 64.3677 21.87C64.3677 20.7633 64.161 19.92 63.7477 19.34C63.341 18.76 62.711 18.47 61.8577 18.47C60.991 18.47 60.3477 18.7633 59.9277 19.35C59.5143 19.93 59.3077 20.77 59.3077 21.87C59.3077 22.97 59.5143 23.81 59.9277 24.39C60.3477 24.9633 60.991 25.25 61.8577 25.25ZM71.132 18.52C71.452 17.9067 71.832 17.4267 72.272 17.08C72.712 16.7267 73.232 16.55 73.832 16.55C74.3054 16.55 74.6854 16.6533 74.972 16.86L74.812 18.71C74.7787 18.83 74.7287 18.9167 74.662 18.97C74.602 19.0167 74.5187 19.04 74.412 19.04C74.312 19.04 74.162 19.0233 73.962 18.99C73.7687 18.9567 73.5787 18.94 73.392 18.94C73.1187 18.94 72.8754 18.98 72.662 19.06C72.4487 19.14 72.2554 19.2567 72.082 19.41C71.9154 19.5567 71.7654 19.7367 71.632 19.95C71.5054 20.1633 71.3854 20.4067 71.272 20.68V27H68.802V16.74H70.252C70.5054 16.74 70.682 16.7867 70.782 16.88C70.882 16.9667 70.9487 17.1267 70.982 17.36L71.132 18.52ZM85.423 27H83.043C82.863 27 82.7163 26.9533 82.603 26.86C82.4963 26.7667 82.4063 26.66 82.333 26.54L80.163 22.97C80.1296 23.0833 80.0896 23.19 80.043 23.29C80.003 23.39 79.9563 23.4833 79.903 23.57L77.983 26.54C77.9096 26.6533 77.8196 26.76 77.713 26.86C77.6063 26.9533 77.473 27 77.313 27H75.103L78.623 21.71L75.243 16.74H77.623C77.803 16.74 77.9363 16.7667 78.023 16.82C78.1096 16.8667 78.1863 16.9467 78.253 17.06L80.403 20.48C80.4763 20.2533 80.5796 20.03 80.713 19.81L82.443 17.11C82.5896 16.8633 82.7796 16.74 83.013 16.74H85.283L81.913 21.6L85.423 27ZM92.9722 18.74C92.9055 18.8467 92.8355 18.9233 92.7622 18.97C92.6889 19.01 92.5955 19.03 92.4822 19.03C92.3622 19.03 92.2322 18.9967 92.0922 18.93C91.9589 18.8633 91.8022 18.79 91.6222 18.71C91.4422 18.6233 91.2355 18.5467 91.0022 18.48C90.7755 18.4133 90.5055 18.38 90.1922 18.38C89.7055 18.38 89.3222 18.4833 89.0422 18.69C88.7689 18.8967 88.6322 19.1667 88.6322 19.5C88.6322 19.72 88.7022 19.9067 88.8422 20.06C88.9889 20.2067 89.1789 20.3367 89.4122 20.45C89.6522 20.5633 89.9222 20.6667 90.2222 20.76C90.5222 20.8467 90.8255 20.9433 91.1322 21.05C91.4455 21.1567 91.7522 21.28 92.0522 21.42C92.3522 21.5533 92.6189 21.7267 92.8522 21.94C93.0922 22.1467 93.2822 22.3967 93.4222 22.69C93.5689 22.9833 93.6422 23.3367 93.6422 23.75C93.6422 24.2433 93.5522 24.7 93.3722 25.12C93.1989 25.5333 92.9389 25.8933 92.5922 26.2C92.2455 26.5 91.8155 26.7367 91.3022 26.91C90.7955 27.0767 90.2089 27.16 89.5422 27.16C89.1889 27.16 88.8422 27.1267 88.5022 27.06C88.1689 27 87.8455 26.9133 87.5322 26.8C87.2255 26.6867 86.9389 26.5533 86.6722 26.4C86.4122 26.2467 86.1822 26.08 85.9822 25.9L86.5522 24.96C86.6255 24.8467 86.7122 24.76 86.8122 24.7C86.9122 24.64 87.0389 24.61 87.1922 24.61C87.3455 24.61 87.4889 24.6533 87.6222 24.74C87.7622 24.8267 87.9222 24.92 88.1022 25.02C88.2822 25.12 88.4922 25.2133 88.7322 25.3C88.9789 25.3867 89.2889 25.43 89.6622 25.43C89.9555 25.43 90.2055 25.3967 90.4122 25.33C90.6255 25.2567 90.7989 25.1633 90.9322 25.05C91.0722 24.9367 91.1722 24.8067 91.2322 24.66C91.2989 24.5067 91.3322 24.35 91.3322 24.19C91.3322 23.95 91.2589 23.7533 91.1122 23.6C90.9722 23.4467 90.7822 23.3133 90.5422 23.2C90.3089 23.0867 90.0389 22.9867 89.7322 22.9C89.4322 22.8067 89.1222 22.7067 88.8022 22.6C88.4889 22.4933 88.1789 22.37 87.8722 22.23C87.5722 22.0833 87.3022 21.9 87.0622 21.68C86.8289 21.46 86.6389 21.19 86.4922 20.87C86.3522 20.55 86.2822 20.1633 86.2822 19.71C86.2822 19.29 86.3655 18.89 86.5322 18.51C86.6989 18.13 86.9422 17.8 87.2622 17.52C87.5889 17.2333 87.9922 17.0067 88.4722 16.84C88.9589 16.6667 89.5189 16.58 90.1522 16.58C90.8589 16.58 91.5022 16.6967 92.0822 16.93C92.6622 17.1633 93.1455 17.47 93.5322 17.85L92.9722 18.74ZM97.9713 24.34C98.2513 24.68 98.5546 24.92 98.8813 25.06C99.2146 25.2 99.5746 25.27 99.9613 25.27C100.335 25.27 100.671 25.2 100.971 25.06C101.271 24.92 101.525 24.7067 101.731 24.42C101.945 24.1333 102.108 23.7733 102.221 23.34C102.335 22.9 102.391 22.3833 102.391 21.79C102.391 21.19 102.341 20.6833 102.241 20.27C102.148 19.85 102.011 19.51 101.831 19.25C101.651 18.99 101.431 18.8 101.171 18.68C100.918 18.56 100.628 18.5 100.301 18.5C99.7879 18.5 99.3513 18.61 98.9913 18.83C98.6313 19.0433 98.2913 19.3467 97.9713 19.74V24.34ZM97.8413 18.14C98.2613 17.6667 98.7379 17.2833 99.2713 16.99C99.8046 16.6967 100.431 16.55 101.151 16.55C101.711 16.55 102.221 16.6667 102.681 16.9C103.148 17.1333 103.548 17.4733 103.881 17.92C104.221 18.36 104.481 18.9067 104.661 19.56C104.848 20.2067 104.941 20.95 104.941 21.79C104.941 22.5567 104.838 23.2667 104.631 23.92C104.425 24.5733 104.128 25.14 103.741 25.62C103.361 26.1 102.898 26.4767 102.351 26.75C101.811 27.0167 101.205 27.15 100.531 27.15C99.9579 27.15 99.4679 27.0633 99.0613 26.89C98.6546 26.71 98.2913 26.4633 97.9713 26.15V30.35H95.5013V16.74H97.0113C97.3313 16.74 97.5413 16.89 97.6413 17.19L97.8413 18.14ZM112.288 22.62C111.575 22.6533 110.975 22.7167 110.488 22.81C110.002 22.8967 109.612 23.01 109.318 23.15C109.025 23.29 108.815 23.4533 108.688 23.64C108.562 23.8267 108.498 24.03 108.498 24.25C108.498 24.6833 108.625 24.9933 108.878 25.18C109.138 25.3667 109.475 25.46 109.888 25.46C110.395 25.46 110.832 25.37 111.198 25.19C111.572 25.0033 111.935 24.7233 112.288 24.35V22.62ZM106.628 18.17C107.808 17.09 109.228 16.55 110.888 16.55C111.488 16.55 112.025 16.65 112.498 16.85C112.972 17.0433 113.372 17.3167 113.698 17.67C114.025 18.0167 114.272 18.4333 114.438 18.92C114.612 19.4067 114.698 19.94 114.698 20.52V27H113.578C113.345 27 113.165 26.9667 113.038 26.9C112.912 26.8267 112.812 26.6833 112.738 26.47L112.518 25.73C112.258 25.9633 112.005 26.17 111.758 26.35C111.512 26.5233 111.255 26.67 110.988 26.79C110.722 26.91 110.435 27 110.128 27.06C109.828 27.1267 109.495 27.16 109.128 27.16C108.695 27.16 108.295 27.1033 107.928 26.99C107.562 26.87 107.245 26.6933 106.978 26.46C106.712 26.2267 106.505 25.9367 106.358 25.59C106.212 25.2433 106.138 24.84 106.138 24.38C106.138 24.12 106.182 23.8633 106.268 23.61C106.355 23.35 106.495 23.1033 106.688 22.87C106.888 22.6367 107.145 22.4167 107.458 22.21C107.772 22.0033 108.155 21.8233 108.608 21.67C109.068 21.5167 109.602 21.3933 110.208 21.3C110.815 21.2 111.508 21.14 112.288 21.12V20.52C112.288 19.8333 112.142 19.3267 111.848 19C111.555 18.6667 111.132 18.5 110.578 18.5C110.178 18.5 109.845 18.5467 109.578 18.64C109.318 18.7333 109.088 18.84 108.888 18.96C108.688 19.0733 108.505 19.1767 108.338 19.27C108.178 19.3633 107.998 19.41 107.798 19.41C107.625 19.41 107.478 19.3667 107.358 19.28C107.238 19.1867 107.142 19.08 107.068 18.96L106.628 18.17ZM124.375 18.91C124.301 19.0033 124.228 19.0767 124.155 19.13C124.088 19.1833 123.988 19.21 123.855 19.21C123.728 19.21 123.605 19.1733 123.485 19.1C123.365 19.02 123.221 18.9333 123.055 18.84C122.888 18.74 122.688 18.6533 122.455 18.58C122.228 18.5 121.945 18.46 121.605 18.46C121.171 18.46 120.791 18.54 120.465 18.7C120.138 18.8533 119.865 19.0767 119.645 19.37C119.431 19.6633 119.271 20.02 119.165 20.44C119.058 20.8533 119.005 21.3233 119.005 21.85C119.005 22.3967 119.061 22.8833 119.175 23.31C119.295 23.7367 119.465 24.0967 119.685 24.39C119.905 24.6767 120.171 24.8967 120.485 25.05C120.798 25.1967 121.151 25.27 121.545 25.27C121.938 25.27 122.255 25.2233 122.495 25.13C122.741 25.03 122.948 24.9233 123.115 24.81C123.281 24.69 123.425 24.5833 123.545 24.49C123.671 24.39 123.811 24.34 123.965 24.34C124.165 24.34 124.315 24.4167 124.415 24.57L125.125 25.47C124.851 25.79 124.555 26.06 124.235 26.28C123.915 26.4933 123.581 26.6667 123.235 26.8C122.895 26.9267 122.541 27.0167 122.175 27.07C121.815 27.1233 121.455 27.15 121.095 27.15C120.461 27.15 119.865 27.0333 119.305 26.8C118.745 26.56 118.255 26.2133 117.835 25.76C117.415 25.3067 117.081 24.7533 116.835 24.1C116.595 23.44 116.475 22.69 116.475 21.85C116.475 21.0967 116.581 20.4 116.795 19.76C117.015 19.1133 117.335 18.5567 117.755 18.09C118.175 17.6167 118.695 17.2467 119.315 16.98C119.935 16.7133 120.648 16.58 121.455 16.58C122.221 16.58 122.891 16.7033 123.465 16.95C124.045 17.1967 124.565 17.55 125.025 18.01L124.375 18.91ZM133.107 20.69C133.107 20.37 133.061 20.07 132.967 19.79C132.881 19.5033 132.747 19.2533 132.567 19.04C132.387 18.8267 132.157 18.66 131.877 18.54C131.604 18.4133 131.284 18.35 130.917 18.35C130.204 18.35 129.641 18.5533 129.227 18.96C128.821 19.3667 128.561 19.9433 128.447 20.69H133.107ZM128.397 22.18C128.437 22.7067 128.531 23.1633 128.677 23.55C128.824 23.93 129.017 24.2467 129.257 24.5C129.497 24.7467 129.781 24.9333 130.107 25.06C130.441 25.18 130.807 25.24 131.207 25.24C131.607 25.24 131.951 25.1933 132.237 25.1C132.531 25.0067 132.784 24.9033 132.997 24.79C133.217 24.6767 133.407 24.5733 133.567 24.48C133.734 24.3867 133.894 24.34 134.047 24.34C134.254 24.34 134.407 24.4167 134.507 24.57L135.217 25.47C134.944 25.79 134.637 26.06 134.297 26.28C133.957 26.4933 133.601 26.6667 133.227 26.8C132.861 26.9267 132.484 27.0167 132.097 27.07C131.717 27.1233 131.347 27.15 130.987 27.15C130.274 27.15 129.611 27.0333 128.997 26.8C128.384 26.56 127.851 26.21 127.397 25.75C126.944 25.2833 126.587 24.71 126.327 24.03C126.067 23.3433 125.937 22.55 125.937 21.65C125.937 20.95 126.051 20.2933 126.277 19.68C126.504 19.06 126.827 18.5233 127.247 18.07C127.674 17.61 128.191 17.2467 128.797 16.98C129.411 16.7133 130.101 16.58 130.867 16.58C131.514 16.58 132.111 16.6833 132.657 16.89C133.204 17.0967 133.674 17.4 134.067 17.8C134.461 18.1933 134.767 18.68 134.987 19.26C135.214 19.8333 135.327 20.49 135.327 21.23C135.327 21.6033 135.287 21.8567 135.207 21.99C135.127 22.1167 134.974 22.18 134.747 22.18H128.397Z" fill="#101828"/>
<path d="M136.821 25.64C136.821 25.4333 136.858 25.2367 136.931 25.05C137.011 24.8633 137.118 24.7033 137.251 24.57C137.384 24.4367 137.544 24.33 137.731 24.25C137.918 24.17 138.118 24.13 138.331 24.13C138.544 24.13 138.741 24.17 138.921 24.25C139.108 24.33 139.268 24.4367 139.401 24.57C139.541 24.7033 139.651 24.8633 139.731 25.05C139.811 25.2367 139.851 25.4333 139.851 25.64C139.851 25.8533 139.811 26.0533 139.731 26.24C139.651 26.42 139.541 26.5767 139.401 26.71C139.268 26.8433 139.108 26.9467 138.921 27.02C138.741 27.1 138.544 27.14 138.331 27.14C138.118 27.14 137.918 27.1 137.731 27.02C137.544 26.9467 137.384 26.8433 137.251 26.71C137.118 26.5767 137.011 26.42 136.931 26.24C136.858 26.0533 136.821 25.8533 136.821 25.64Z" fill="#5653FC"/>
</svg>
