<svg width="56" height="56" viewBox="0 0 56 56" fill="none" xmlns="http://www.w3.org/2000/svg">
<rect x="4" y="4" width="48" height="48" rx="24" fill="#FEE4E2"/>
<path d="M32 33.0003L37 28.0003M37 28.0003L32 23.0003M37 28.0003H25M28 33.0003C28 33.2959 28 33.4437 27.989 33.5717C27.8748 34.9023 26.8949 35.9972 25.585 36.2576C25.459 36.2826 25.312 36.299 25.0184 36.3316L23.9969 36.4451C22.4625 36.6156 21.6952 36.7008 21.0857 36.5058C20.2729 36.2457 19.6094 35.6518 19.2612 34.8728C19 34.2885 19 33.5165 19 31.9726V24.028C19 22.4841 19 21.7121 19.2612 21.1278C19.6094 20.3488 20.2729 19.7549 21.0857 19.4948C21.6952 19.2998 22.4625 19.385 23.9969 19.5555L25.0183 19.669C25.3121 19.7017 25.459 19.718 25.585 19.743C26.8949 20.0035 27.8748 21.0983 27.989 22.4289C28 22.5569 28 22.7047 28 23.0003" stroke="#D92D20" stroke-width="2" stroke-linecap="round" stroke-linejoin="round"/>
<rect x="4" y="4" width="48" height="48" rx="24" stroke="#FEF3F2" stroke-width="8"/>
</svg>
