<svg width="76" height="22" viewBox="0 0 76 22" fill="none" xmlns="http://www.w3.org/2000/svg">
<g style="mix-blend-mode:multiply">
<rect x="0.200195" width="75" height="22" rx="11" fill="#FEF3F2"/>
<path d="M16.4296 6.27273V15H15.2194L10.7833 8.59943H10.7023V15H9.38556V6.27273H10.6043L15.0447 12.6818H15.1256V6.27273H16.4296ZM21.0052 15.1321C20.3916 15.1321 19.8561 14.9915 19.3987 14.7102C18.9413 14.429 18.5862 14.0355 18.3334 13.5298C18.0805 13.0241 17.9541 12.4332 17.9541 11.7571C17.9541 11.0781 18.0805 10.4844 18.3334 9.97585C18.5862 9.46733 18.9413 9.07244 19.3987 8.79119C19.8561 8.50994 20.3916 8.36932 21.0052 8.36932C21.6189 8.36932 22.1544 8.50994 22.6118 8.79119C23.0692 9.07244 23.4243 9.46733 23.6771 9.97585C23.93 10.4844 24.0564 11.0781 24.0564 11.7571C24.0564 12.4332 23.93 13.0241 23.6771 13.5298C23.4243 14.0355 23.0692 14.429 22.6118 14.7102C22.1544 14.9915 21.6189 15.1321 21.0052 15.1321ZM21.0095 14.0625C21.4072 14.0625 21.7368 13.9574 21.9981 13.7472C22.2595 13.5369 22.4527 13.2571 22.5777 12.9077C22.7055 12.5582 22.7694 12.1733 22.7694 11.7528C22.7694 11.3352 22.7055 10.9517 22.5777 10.6023C22.4527 10.25 22.2595 9.96733 21.9981 9.75426C21.7368 9.54119 21.4072 9.43466 21.0095 9.43466C20.6089 9.43466 20.2765 9.54119 20.0123 9.75426C19.751 9.96733 19.5564 10.25 19.4285 10.6023C19.3035 10.9517 19.241 11.3352 19.241 11.7528C19.241 12.1733 19.3035 12.5582 19.4285 12.9077C19.5564 13.2571 19.751 13.5369 20.0123 13.7472C20.2765 13.9574 20.6089 14.0625 21.0095 14.0625ZM28.534 8.45455V9.47727H24.9587V8.45455H28.534ZM25.9175 6.88636H27.1917V13.0781C27.1917 13.3253 27.2286 13.5114 27.3025 13.6364C27.3763 13.7585 27.4715 13.8423 27.588 13.8878C27.7073 13.9304 27.8366 13.9517 27.9758 13.9517C28.078 13.9517 28.1675 13.9446 28.2442 13.9304C28.3209 13.9162 28.3806 13.9048 28.4232 13.8963L28.6533 14.9489C28.5795 14.9773 28.4743 15.0057 28.338 15.0341C28.2016 15.0653 28.0312 15.0824 27.8266 15.0852C27.4914 15.0909 27.1789 15.0312 26.8891 14.9062C26.5993 14.7812 26.365 14.5881 26.186 14.3267C26.007 14.0653 25.9175 13.7372 25.9175 13.3423V6.88636ZM35.0241 15.1449C34.6093 15.1449 34.2343 15.0682 33.8991 14.9148C33.5638 14.7585 33.2982 14.5327 33.1022 14.2372C32.909 13.9418 32.8124 13.5795 32.8124 13.1506C32.8124 12.7812 32.8834 12.4773 33.0255 12.2386C33.1675 12 33.3593 11.8111 33.6008 11.6719C33.8422 11.5327 34.1121 11.4276 34.4104 11.3565C34.7087 11.2855 35.0127 11.2315 35.3224 11.1946C35.7144 11.1491 36.0326 11.1122 36.2769 11.0838C36.5212 11.0526 36.6988 11.0028 36.8096 10.9347C36.9204 10.8665 36.9758 10.7557 36.9758 10.6023V10.5724C36.9758 10.2003 36.8706 9.91193 36.6604 9.70739C36.453 9.50284 36.1434 9.40057 35.7314 9.40057C35.3025 9.40057 34.9644 9.49574 34.7172 9.68608C34.4729 9.87358 34.3039 10.0824 34.2101 10.3125L33.0127 10.0398C33.1547 9.64205 33.3621 9.32102 33.6349 9.0767C33.9104 8.82955 34.2272 8.65057 34.5851 8.53977C34.9431 8.42614 35.3195 8.36932 35.7144 8.36932C35.9758 8.36932 36.2528 8.40057 36.5454 8.46307C36.8408 8.52273 37.1164 8.63352 37.3721 8.79545C37.6306 8.95739 37.8422 9.18892 38.007 9.49006C38.1718 9.78835 38.2542 10.1761 38.2542 10.6534V15H37.0099V14.1051H36.9587C36.8763 14.2699 36.7528 14.4318 36.588 14.5909C36.4232 14.75 36.2116 14.8821 35.953 14.9872C35.6945 15.0923 35.3849 15.1449 35.0241 15.1449ZM35.301 14.1222C35.6533 14.1222 35.9545 14.0526 36.2045 13.9134C36.4573 13.7741 36.6491 13.5923 36.7797 13.3679C36.9133 13.1406 36.98 12.8977 36.98 12.6392V11.7955C36.9346 11.8409 36.8465 11.8835 36.7158 11.9233C36.588 11.9602 36.4417 11.9929 36.2769 12.0213C36.1121 12.0469 35.9516 12.071 35.7954 12.0938C35.6391 12.1136 35.5084 12.1307 35.4033 12.1449C35.1562 12.1761 34.9303 12.2287 34.7258 12.3026C34.5241 12.3764 34.3621 12.483 34.24 12.6222C34.1206 12.7585 34.061 12.9403 34.061 13.1676C34.061 13.483 34.1775 13.7216 34.4104 13.8835C34.6434 14.0426 34.9403 14.1222 35.301 14.1222ZM42.7084 15.1321C42.0748 15.1321 41.5294 14.9886 41.072 14.7017C40.6175 14.4119 40.268 14.0128 40.0237 13.5043C39.7794 12.9957 39.6572 12.4134 39.6572 11.7571C39.6572 11.0923 39.7822 10.5057 40.0322 9.99716C40.2822 9.4858 40.6345 9.08665 41.089 8.79972C41.5436 8.51278 42.0791 8.36932 42.6956 8.36932C43.1927 8.36932 43.6359 8.46165 44.0251 8.64631C44.4143 8.82812 44.7282 9.08381 44.9669 9.41335C45.2084 9.7429 45.3518 10.1278 45.3973 10.5682H44.1572C44.089 10.2614 43.9328 9.99716 43.6885 9.77557C43.447 9.55398 43.1231 9.44318 42.7169 9.44318C42.3618 9.44318 42.0507 9.53693 41.7836 9.72443C41.5194 9.90909 41.3135 10.1733 41.1657 10.517C41.018 10.858 40.9442 11.2614 40.9442 11.7273C40.9442 12.2045 41.0166 12.6165 41.1615 12.9631C41.3064 13.3097 41.5109 13.5781 41.7751 13.7685C42.0422 13.9588 42.3561 14.054 42.7169 14.054C42.9584 14.054 43.1771 14.0099 43.3731 13.9219C43.572 13.831 43.7382 13.7017 43.8717 13.5341C44.0081 13.3665 44.1032 13.1648 44.1572 12.929H45.3973C45.3518 13.3523 45.214 13.7301 44.9839 14.0625C44.7538 14.3949 44.4456 14.6562 44.0592 14.8466C43.6757 15.0369 43.2254 15.1321 42.7084 15.1321ZM49.8153 8.45455V9.47727H46.24V8.45455H49.8153ZM47.1988 6.88636H48.4729V13.0781C48.4729 13.3253 48.5099 13.5114 48.5837 13.6364C48.6576 13.7585 48.7528 13.8423 48.8692 13.8878C48.9885 13.9304 49.1178 13.9517 49.257 13.9517C49.3593 13.9517 49.4488 13.9446 49.5255 13.9304C49.6022 13.9162 49.6618 13.9048 49.7045 13.8963L49.9346 14.9489C49.8607 14.9773 49.7556 15.0057 49.6192 15.0341C49.4829 15.0653 49.3124 15.0824 49.1079 15.0852C48.7726 15.0909 48.4601 15.0312 48.1704 14.9062C47.8806 14.7812 47.6462 14.5881 47.4672 14.3267C47.2883 14.0653 47.1988 13.7372 47.1988 13.3423V6.88636ZM51.2247 15V8.45455H52.4988V15H51.2247ZM51.8682 7.4446C51.6466 7.4446 51.4562 7.37074 51.2971 7.22301C51.1409 7.07244 51.0628 6.89347 51.0628 6.68608C51.0628 6.47585 51.1409 6.29687 51.2971 6.14915C51.4562 5.99858 51.6466 5.9233 51.8682 5.9233C52.0898 5.9233 52.2787 5.99858 52.4349 6.14915C52.594 6.29687 52.6736 6.47585 52.6736 6.68608C52.6736 6.89347 52.594 7.07244 52.4349 7.22301C52.2787 7.37074 52.0898 7.4446 51.8682 7.4446ZM59.8124 8.45455L57.4388 15H56.0752L53.6974 8.45455H55.0653L56.7229 13.4915H56.7911L58.4445 8.45455H59.8124ZM63.6082 15.1321C62.9633 15.1321 62.4079 14.9943 61.942 14.7188C61.479 14.4403 61.121 14.0497 60.8682 13.5469C60.6182 13.0412 60.4932 12.4489 60.4932 11.7699C60.4932 11.0994 60.6182 10.5085 60.8682 9.99716C61.121 9.4858 61.4733 9.08665 61.925 8.79972C62.3795 8.51278 62.9108 8.36932 63.5187 8.36932C63.8881 8.36932 64.246 8.4304 64.5926 8.55256C64.9392 8.67472 65.2503 8.86648 65.5258 9.12784C65.8014 9.3892 66.0187 9.72869 66.1778 10.1463C66.3369 10.5611 66.4165 11.0653 66.4165 11.6591V12.1108H61.2133V11.1562H65.1679C65.1679 10.821 65.0997 10.5241 64.9633 10.2656C64.827 10.0043 64.6352 9.7983 64.3881 9.64773C64.1437 9.49716 63.8568 9.42188 63.5273 9.42188C63.1693 9.42188 62.8568 9.50994 62.5898 9.68608C62.3256 9.85937 62.121 10.0866 61.9761 10.3679C61.8341 10.6463 61.7631 10.9489 61.7631 11.2756V12.0213C61.7631 12.4588 61.8398 12.831 61.9932 13.1378C62.1494 13.4446 62.3667 13.679 62.6452 13.8409C62.9236 14 63.2488 14.0795 63.621 14.0795C63.8625 14.0795 64.0827 14.0455 64.2815 13.9773C64.4804 13.9062 64.6523 13.8011 64.7971 13.6619C64.942 13.5227 65.0528 13.3509 65.1295 13.1463L66.3355 13.3636C66.2389 13.7187 66.0656 14.0298 65.8156 14.2969C65.5684 14.5611 65.2574 14.767 64.8824 14.9148C64.5102 15.0597 64.0855 15.1321 63.6082 15.1321Z" fill="#B42318"/>
</g>
</svg>
