<svg width="56" height="56" viewBox="0 0 56 56" fill="none" xmlns="http://www.w3.org/2000/svg">
<rect x="4" y="4" width="48" height="48" rx="24" fill="#CCCBFE"/>
<path d="M29.9998 37H25.9998M33.9998 24C33.9998 22.4087 33.3676 20.8826 32.2424 19.7574C31.1172 18.6321 29.5911 18 27.9998 18C26.4085 18 24.8824 18.6321 23.7571 19.7574C22.6319 20.8826 21.9998 22.4087 21.9998 24C21.9998 27.0902 21.2202 29.206 20.3494 30.6054C19.6149 31.7859 19.2476 32.3761 19.2611 32.5408C19.276 32.7231 19.3146 32.7926 19.4616 32.9016C19.5942 33 20.1924 33 21.3886 33H34.6109C35.8072 33 36.4053 33 36.538 32.9016C36.6849 32.7926 36.7235 32.7231 36.7384 32.5408C36.7519 32.3761 36.3846 31.7859 35.6501 30.6054C34.7793 29.206 33.9998 27.0902 33.9998 24Z" stroke="#5653FC" stroke-width="2" stroke-linecap="round" stroke-linejoin="round"/>
<rect x="4" y="4" width="48" height="48" rx="24" stroke="#DDDDFE" stroke-width="8"/>
</svg>
