<svg width="36" height="36" viewBox="0 0 36 36" fill="none" xmlns="http://www.w3.org/2000/svg">
<rect width="36" height="36" rx="8" fill="#EEEEFF"/>
<path d="M25.5 16.3333H10.5M21.3333 9.66666V13M14.6667 9.66666V13M15.5 21.3333L17.1667 23L20.9167 19.25M14.5 26.3333H21.5C22.9001 26.3333 23.6002 26.3333 24.135 26.0608C24.6054 25.8212 24.9878 25.4387 25.2275 24.9683C25.5 24.4335 25.5 23.7335 25.5 22.3333V15.3333C25.5 13.9332 25.5 13.2331 25.2275 12.6984C24.9878 12.2279 24.6054 11.8455 24.135 11.6058C23.6002 11.3333 22.9001 11.3333 21.5 11.3333H14.5C13.0999 11.3333 12.3998 11.3333 11.865 11.6058C11.3946 11.8455 11.0122 12.2279 10.7725 12.6984C10.5 13.2331 10.5 13.9332 10.5 15.3333V22.3333C10.5 23.7335 10.5 24.4335 10.7725 24.9683C11.0122 25.4387 11.3946 25.8212 11.865 26.0608C12.3998 26.3333 13.0999 26.3333 14.5 26.3333Z" stroke="#5653FC" stroke-width="2" stroke-linecap="round" stroke-linejoin="round"/>
</svg>
