<svg width="86" height="22" viewBox="0 0 86 22" fill="none" xmlns="http://www.w3.org/2000/svg">
<g style="mix-blend-mode:multiply">
<rect width="86" height="22" rx="11" fill="#F2F4F7"/>
<path d="M8 8.5H13C14.6569 8.5 16 9.84315 16 11.5C16 13.1569 14.6569 14.5 13 14.5H8M8 8.5L10 6.5M8 8.5L10 10.5" stroke="#667085" stroke-width="1.5" stroke-linecap="round" stroke-linejoin="round"/>
<path d="M23.2088 15V6.27273H26.3196C26.9957 6.27273 27.5568 6.3892 28.0028 6.62216C28.4517 6.85511 28.7869 7.17756 29.0085 7.58949C29.2301 7.99858 29.3409 8.47159 29.3409 9.00852C29.3409 9.54261 29.2287 10.0128 29.0043 10.419C28.7827 10.8224 28.4474 11.1364 27.9986 11.3608C27.5526 11.5852 26.9915 11.6974 26.3153 11.6974H23.9588V10.5639H26.196C26.6222 10.5639 26.9688 10.5028 27.2358 10.3807C27.5057 10.2585 27.7031 10.081 27.8281 9.84801C27.9531 9.61506 28.0156 9.33523 28.0156 9.00852C28.0156 8.67898 27.9517 8.39347 27.8239 8.15199C27.6989 7.91051 27.5014 7.72585 27.2315 7.59801C26.9645 7.46733 26.6136 7.40199 26.179 7.40199H24.5256V15H23.2088ZM27.517 11.0625L29.6733 15H28.1733L26.0597 11.0625H27.517ZM33.5799 15.1321C32.935 15.1321 32.3796 14.9943 31.9137 14.7188C31.4506 14.4403 31.0927 14.0497 30.8398 13.5469C30.5898 13.0412 30.4648 12.4489 30.4648 11.7699C30.4648 11.0994 30.5898 10.5085 30.8398 9.99716C31.0927 9.4858 31.445 9.08665 31.8967 8.79972C32.3512 8.51278 32.8825 8.36932 33.4904 8.36932C33.8597 8.36932 34.2177 8.4304 34.5643 8.55256C34.9109 8.67472 35.2219 8.86648 35.4975 9.12784C35.7731 9.3892 35.9904 9.72869 36.1495 10.1463C36.3086 10.5611 36.3881 11.0653 36.3881 11.6591V12.1108H31.185V11.1562H35.1396C35.1396 10.821 35.0714 10.5241 34.935 10.2656C34.7987 10.0043 34.6069 9.7983 34.3597 9.64773C34.1154 9.49716 33.8285 9.42188 33.4989 9.42188C33.141 9.42188 32.8285 9.50994 32.5614 9.68608C32.2972 9.85937 32.0927 10.0866 31.9478 10.3679C31.8058 10.6463 31.7347 10.9489 31.7347 11.2756V12.0213C31.7347 12.4588 31.8114 12.831 31.9648 13.1378C32.1211 13.4446 32.3384 13.679 32.6168 13.8409C32.8952 14 33.2205 14.0795 33.5927 14.0795C33.8342 14.0795 34.0543 14.0455 34.2532 13.9773C34.4521 13.9062 34.6239 13.8011 34.7688 13.6619C34.9137 13.5227 35.0245 13.3509 35.1012 13.1463L36.3072 13.3636C36.2106 13.7187 36.0373 14.0298 35.7873 14.2969C35.5401 14.5611 35.229 14.767 34.854 14.9148C34.4819 15.0597 34.0572 15.1321 33.5799 15.1321ZM40.9169 8.45455V9.47727H37.218V8.45455H40.9169ZM38.2322 15V7.69602C38.2322 7.28693 38.3217 6.94744 38.5007 6.67756C38.6797 6.40483 38.9169 6.2017 39.2124 6.06818C39.5078 5.93182 39.8288 5.86364 40.1754 5.86364C40.4311 5.86364 40.6499 5.88494 40.8317 5.92756C41.0135 5.96733 41.1484 6.00426 41.2365 6.03835L40.9382 7.0696C40.8786 7.05256 40.8018 7.03267 40.7081 7.00994C40.6143 6.98437 40.5007 6.97159 40.3672 6.97159C40.0575 6.97159 39.8359 7.0483 39.7024 7.2017C39.5717 7.35511 39.5064 7.5767 39.5064 7.86648V15H38.2322ZM46.3778 12.2855V8.45455H47.6562V15H46.4034V13.8665H46.3352C46.1847 14.2159 45.9432 14.5071 45.6108 14.7401C45.2813 14.9702 44.8707 15.0852 44.3793 15.0852C43.9588 15.0852 43.5866 14.9929 43.2628 14.8082C42.9418 14.6207 42.6889 14.3438 42.5043 13.9773C42.3224 13.6108 42.2315 13.1577 42.2315 12.6179V8.45455H43.5057V12.4645C43.5057 12.9105 43.6293 13.2656 43.8764 13.5298C44.1236 13.794 44.4446 13.9261 44.8395 13.9261C45.0781 13.9261 45.3153 13.8665 45.5511 13.7472C45.7898 13.6278 45.9872 13.4474 46.1435 13.206C46.3026 12.9645 46.3807 12.6577 46.3778 12.2855ZM50.6424 11.1136V15H49.3683V8.45455H50.5913V9.51989H50.6722C50.8228 9.1733 51.0586 8.89489 51.3796 8.68466C51.7035 8.47443 52.1112 8.36932 52.6026 8.36932C53.0487 8.36932 53.4393 8.46307 53.7745 8.65057C54.1097 8.83523 54.3697 9.1108 54.5543 9.47727C54.739 9.84375 54.8313 10.2969 54.8313 10.8366V15H53.5572V10.9901C53.5572 10.5156 53.4336 10.1449 53.1864 9.87784C52.9393 9.60795 52.5998 9.47301 52.168 9.47301C51.8725 9.47301 51.6097 9.53693 51.3796 9.66477C51.1523 9.79261 50.9719 9.98011 50.8384 10.2273C50.7077 10.4716 50.6424 10.767 50.6424 11.1136ZM58.9904 15.1278C58.462 15.1278 57.9904 14.9929 57.5756 14.723C57.1637 14.4503 56.8398 14.0625 56.604 13.5597C56.3711 13.054 56.2546 12.4474 56.2546 11.7401C56.2546 11.0327 56.3725 10.4276 56.6083 9.92472C56.8469 9.42187 57.1737 9.03693 57.5884 8.76989C58.0032 8.50284 58.4734 8.36932 58.9989 8.36932C59.4052 8.36932 59.7319 8.4375 59.979 8.57386C60.229 8.70739 60.4222 8.86364 60.5586 9.04261C60.6978 9.22159 60.8058 9.37926 60.8825 9.51562H60.9592V6.27273H62.2333V15H60.989V13.9815H60.8825C60.8058 14.1207 60.695 14.2798 60.5501 14.4588C60.408 14.6378 60.212 14.794 59.962 14.9276C59.712 15.0611 59.3881 15.1278 58.9904 15.1278ZM59.2717 14.0412C59.6381 14.0412 59.9478 13.9446 60.2006 13.7514C60.4563 13.5554 60.6495 13.2841 60.7802 12.9375C60.9137 12.5909 60.9805 12.1875 60.9805 11.7273C60.9805 11.2727 60.9151 10.875 60.7844 10.5341C60.6538 10.1932 60.462 9.92756 60.2092 9.73722C59.9563 9.54687 59.6438 9.4517 59.2717 9.4517C58.8881 9.4517 58.5685 9.55114 58.3129 9.75C58.0572 9.94886 57.864 10.2202 57.7333 10.5639C57.6055 10.9077 57.5415 11.2955 57.5415 11.7273C57.5415 12.1648 57.6069 12.5582 57.7376 12.9077C57.8683 13.2571 58.0614 13.5341 58.3171 13.7386C58.5756 13.9403 58.8938 14.0412 59.2717 14.0412ZM66.8729 15.1321C66.228 15.1321 65.6726 14.9943 65.2067 14.7188C64.7436 14.4403 64.3857 14.0497 64.1328 13.5469C63.8828 13.0412 63.7578 12.4489 63.7578 11.7699C63.7578 11.0994 63.8828 10.5085 64.1328 9.99716C64.3857 9.4858 64.7379 9.08665 65.1896 8.79972C65.6442 8.51278 66.1754 8.36932 66.7834 8.36932C67.1527 8.36932 67.5107 8.4304 67.8572 8.55256C68.2038 8.67472 68.5149 8.86648 68.7905 9.12784C69.0661 9.3892 69.2834 9.72869 69.4425 10.1463C69.6016 10.5611 69.6811 11.0653 69.6811 11.6591V12.1108H64.478V11.1562H68.4325C68.4325 10.821 68.3643 10.5241 68.228 10.2656C68.0916 10.0043 67.8999 9.7983 67.6527 9.64773C67.4084 9.49716 67.1214 9.42188 66.7919 9.42188C66.4339 9.42188 66.1214 9.50994 65.8544 9.68608C65.5902 9.85937 65.3857 10.0866 65.2408 10.3679C65.0987 10.6463 65.0277 10.9489 65.0277 11.2756V12.0213C65.0277 12.4588 65.1044 12.831 65.2578 13.1378C65.4141 13.4446 65.6314 13.679 65.9098 13.8409C66.1882 14 66.5135 14.0795 66.8857 14.0795C67.1271 14.0795 67.3473 14.0455 67.5462 13.9773C67.745 13.9062 67.9169 13.8011 68.0618 13.6619C68.2067 13.5227 68.3175 13.3509 68.3942 13.1463L69.6001 13.3636C69.5036 13.7187 69.3303 14.0298 69.0803 14.2969C68.8331 14.5611 68.522 14.767 68.147 14.9148C67.7749 15.0597 67.3501 15.1321 66.8729 15.1321ZM73.5451 15.1278C73.0167 15.1278 72.5451 14.9929 72.1303 14.723C71.7184 14.4503 71.3945 14.0625 71.1587 13.5597C70.9258 13.054 70.8093 12.4474 70.8093 11.7401C70.8093 11.0327 70.9272 10.4276 71.163 9.92472C71.4016 9.42187 71.7283 9.03693 72.1431 8.76989C72.5579 8.50284 73.0281 8.36932 73.5536 8.36932C73.9599 8.36932 74.2866 8.4375 74.5337 8.57386C74.7837 8.70739 74.9769 8.86364 75.1133 9.04261C75.2525 9.22159 75.3604 9.37926 75.4371 9.51562H75.5138V6.27273H76.788V15H75.5437V13.9815H75.4371C75.3604 14.1207 75.2496 14.2798 75.1048 14.4588C74.9627 14.6378 74.7667 14.794 74.5167 14.9276C74.2667 15.0611 73.9428 15.1278 73.5451 15.1278ZM73.8263 14.0412C74.1928 14.0412 74.5025 13.9446 74.7553 13.7514C75.011 13.5554 75.2042 13.2841 75.3349 12.9375C75.4684 12.5909 75.5352 12.1875 75.5352 11.7273C75.5352 11.2727 75.4698 10.875 75.3391 10.5341C75.2085 10.1932 75.0167 9.92756 74.7638 9.73722C74.511 9.54687 74.1985 9.4517 73.8263 9.4517C73.4428 9.4517 73.1232 9.55114 72.8675 9.75C72.6119 9.94886 72.4187 10.2202 72.288 10.5639C72.1602 10.9077 72.0962 11.2955 72.0962 11.7273C72.0962 12.1648 72.1616 12.5582 72.2923 12.9077C72.4229 13.2571 72.6161 13.5341 72.8718 13.7386C73.1303 13.9403 73.4485 14.0412 73.8263 14.0412Z" fill="#344054"/>
</g>
</svg>
