<svg width="56" height="56" viewBox="0 0 56 56" fill="none" xmlns="http://www.w3.org/2000/svg">
<rect x="4" y="4" width="48" height="48" rx="24" fill="#CCCBFE"/>
<path d="M28.913 33H36.087M28.913 33L27 37M28.913 33L31.7783 27.009C32.0092 26.5263 32.1246 26.2849 32.2826 26.2086C32.4199 26.1423 32.5801 26.1423 32.7174 26.2086C32.8754 26.2849 32.9908 26.5263 33.2217 27.009L36.087 33M36.087 33L38 37M18 21H24M24 21H27.5M24 21V19M27.5 21H30M27.5 21C27.0039 23.9573 25.8526 26.6362 24.1655 28.8844M26 30C25.3875 29.7248 24.7626 29.3421 24.1655 28.8844M24.1655 28.8844C22.813 27.8478 21.6028 26.4266 21 25M24.1655 28.8844C22.5609 31.0229 20.4714 32.7718 18 34" stroke="#4543D1" stroke-width="2" stroke-linecap="round" stroke-linejoin="round"/>
<rect x="4" y="4" width="48" height="48" rx="24" stroke="#DDDDFE" stroke-width="8"/>
</svg>
