<svg width="71" height="22" viewBox="0 0 71 22" fill="none" xmlns="http://www.w3.org/2000/svg">
<g style="mix-blend-mode:multiply">
<rect width="71" height="22" rx="11" fill="#FFFAEB"/>
<path d="M11.9999 9.50012V11.5001M11.9999 13.5001H12.0049M11.3075 6.94598L7.19509 14.0493C6.96699 14.4433 6.85294 14.6403 6.8698 14.802C6.8845 14.943 6.95838 15.0711 7.07306 15.1545C7.20454 15.2501 7.43217 15.2501 7.88744 15.2501H16.1123C16.5676 15.2501 16.7952 15.2501 16.9267 15.1545C17.0414 15.0711 17.1153 14.943 17.13 14.802C17.1468 14.6403 17.0328 14.4433 16.8047 14.0493L12.6922 6.94598C12.4649 6.55339 12.3513 6.3571 12.203 6.29118C12.0737 6.23367 11.9261 6.23367 11.7967 6.29118C11.6485 6.3571 11.5348 6.55339 11.3075 6.94598Z" stroke="#F79009" stroke-width="1.5" stroke-linecap="round" stroke-linejoin="round"/>
<path d="M28.6921 6.27273H30.0131V12.0128C30.0131 12.6236 29.8697 13.1648 29.5827 13.6364C29.2958 14.1051 28.8924 14.4744 28.3725 14.7443C27.8526 15.0114 27.2433 15.1449 26.5444 15.1449C25.8484 15.1449 25.2404 15.0114 24.7205 14.7443C24.2006 14.4744 23.7972 14.1051 23.5103 13.6364C23.2234 13.1648 23.0799 12.6236 23.0799 12.0128V6.27273H24.3967V11.9062C24.3967 12.3011 24.4833 12.652 24.6566 12.9588C24.8327 13.2656 25.0813 13.5071 25.4023 13.6832C25.7234 13.8565 26.104 13.9432 26.5444 13.9432C26.9876 13.9432 27.3697 13.8565 27.6907 13.6832C28.0146 13.5071 28.2617 13.2656 28.4322 12.9588C28.6055 12.652 28.6921 12.3011 28.6921 11.9062V6.27273ZM33.0994 11.1136V15H31.8253V8.45455H33.0483V9.51989H33.1293C33.2798 9.1733 33.5156 8.89489 33.8366 8.68466C34.1605 8.47443 34.5682 8.36932 35.0597 8.36932C35.5057 8.36932 35.8963 8.46307 36.2315 8.65057C36.5668 8.83523 36.8267 9.1108 37.0114 9.47727C37.196 9.84375 37.2884 10.2969 37.2884 10.8366V15H36.0142V10.9901C36.0142 10.5156 35.8906 10.1449 35.6435 9.87784C35.3963 9.60795 35.0568 9.47301 34.625 9.47301C34.3295 9.47301 34.0668 9.53693 33.8366 9.66477C33.6094 9.79261 33.429 9.98011 33.2955 10.2273C33.1648 10.4716 33.0994 10.767 33.0994 11.1136ZM38.9972 17.4545V8.45455H40.2415V9.51562H40.348C40.4219 9.37926 40.5284 9.22159 40.6676 9.04261C40.8068 8.86364 41 8.70739 41.2472 8.57386C41.4943 8.4375 41.821 8.36932 42.2273 8.36932C42.7557 8.36932 43.2273 8.50284 43.642 8.76989C44.0568 9.03693 44.3821 9.42187 44.6179 9.92472C44.8565 10.4276 44.9759 11.0327 44.9759 11.7401C44.9759 12.4474 44.858 13.054 44.6222 13.5597C44.3864 14.0625 44.0625 14.4503 43.6506 14.723C43.2386 14.9929 42.7685 15.1278 42.2401 15.1278C41.8423 15.1278 41.517 15.0611 41.2642 14.9276C41.0142 14.794 40.8182 14.6378 40.6761 14.4588C40.5341 14.2798 40.4247 14.1207 40.348 13.9815H40.2713V17.4545H38.9972ZM40.2457 11.7273C40.2457 12.1875 40.3125 12.5909 40.446 12.9375C40.5795 13.2841 40.7727 13.5554 41.0256 13.7514C41.2784 13.9446 41.5881 14.0412 41.9545 14.0412C42.3352 14.0412 42.6534 13.9403 42.9091 13.7386C43.1648 13.5341 43.358 13.2571 43.4886 12.9077C43.6222 12.5582 43.6889 12.1648 43.6889 11.7273C43.6889 11.2955 43.6236 10.9077 43.4929 10.5639C43.3651 10.2202 43.1719 9.94886 42.9134 9.75C42.6577 9.55114 42.3381 9.4517 41.9545 9.4517C41.5852 9.4517 41.2727 9.54687 41.017 9.73722C40.7642 9.92756 40.5724 10.1932 40.4418 10.5341C40.3111 10.875 40.2457 11.2727 40.2457 11.7273ZM48.3082 15.1449C47.8935 15.1449 47.5185 15.0682 47.1832 14.9148C46.848 14.7585 46.5824 14.5327 46.3864 14.2372C46.1932 13.9418 46.0966 13.5795 46.0966 13.1506C46.0966 12.7812 46.1676 12.4773 46.3097 12.2386C46.4517 12 46.6435 11.8111 46.8849 11.6719C47.1264 11.5327 47.3963 11.4276 47.6946 11.3565C47.9929 11.2855 48.2969 11.2315 48.6065 11.1946C48.9986 11.1491 49.3168 11.1122 49.5611 11.0838C49.8054 11.0526 49.983 11.0028 50.0938 10.9347C50.2045 10.8665 50.2599 10.7557 50.2599 10.6023V10.5724C50.2599 10.2003 50.1548 9.91193 49.9446 9.70739C49.7372 9.50284 49.4276 9.40057 49.0156 9.40057C48.5866 9.40057 48.2486 9.49574 48.0014 9.68608C47.7571 9.87358 47.5881 10.0824 47.4943 10.3125L46.2969 10.0398C46.4389 9.64205 46.6463 9.32102 46.919 9.0767C47.1946 8.82955 47.5114 8.65057 47.8693 8.53977C48.2273 8.42614 48.6037 8.36932 48.9986 8.36932C49.2599 8.36932 49.5369 8.40057 49.8295 8.46307C50.125 8.52273 50.4006 8.63352 50.6562 8.79545C50.9148 8.95739 51.1264 9.18892 51.2912 9.49006C51.456 9.78835 51.5384 10.1761 51.5384 10.6534V15H50.294V14.1051H50.2429C50.1605 14.2699 50.0369 14.4318 49.8722 14.5909C49.7074 14.75 49.4957 14.8821 49.2372 14.9872C48.9787 15.0923 48.669 15.1449 48.3082 15.1449ZM48.5852 14.1222C48.9375 14.1222 49.2386 14.0526 49.4886 13.9134C49.7415 13.7741 49.9332 13.5923 50.0639 13.3679C50.1974 13.1406 50.2642 12.8977 50.2642 12.6392V11.7955C50.2188 11.8409 50.1307 11.8835 50 11.9233C49.8722 11.9602 49.7259 11.9929 49.5611 12.0213C49.3963 12.0469 49.2358 12.071 49.0795 12.0938C48.9233 12.1136 48.7926 12.1307 48.6875 12.1449C48.4403 12.1761 48.2145 12.2287 48.0099 12.3026C47.8082 12.3764 47.6463 12.483 47.5241 12.6222C47.4048 12.7585 47.3452 12.9403 47.3452 13.1676C47.3452 13.483 47.4616 13.7216 47.6946 13.8835C47.9276 14.0426 48.2244 14.1222 48.5852 14.1222ZM53.2354 15V8.45455H54.5096V15H53.2354ZM53.8789 7.4446C53.6573 7.4446 53.467 7.37074 53.3079 7.22301C53.1516 7.07244 53.0735 6.89347 53.0735 6.68608C53.0735 6.47585 53.1516 6.29687 53.3079 6.14915C53.467 5.99858 53.6573 5.9233 53.8789 5.9233C54.1005 5.9233 54.2894 5.99858 54.4457 6.14915C54.6048 6.29687 54.6843 6.47585 54.6843 6.68608C54.6843 6.89347 54.6048 7.07244 54.4457 7.22301C54.2894 7.37074 54.1005 7.4446 53.8789 7.4446ZM58.674 15.1278C58.1456 15.1278 57.674 14.9929 57.2592 14.723C56.8473 14.4503 56.5234 14.0625 56.2876 13.5597C56.0547 13.054 55.9382 12.4474 55.9382 11.7401C55.9382 11.0327 56.0561 10.4276 56.2919 9.92472C56.5305 9.42187 56.8572 9.03693 57.272 8.76989C57.6868 8.50284 58.157 8.36932 58.6825 8.36932C59.0888 8.36932 59.4155 8.4375 59.6626 8.57386C59.9126 8.70739 60.1058 8.86364 60.2422 9.04261C60.3814 9.22159 60.4893 9.37926 60.5661 9.51562H60.6428V6.27273H61.9169V15H60.6726V13.9815H60.5661C60.4893 14.1207 60.3786 14.2798 60.2337 14.4588C60.0916 14.6378 59.8956 14.794 59.6456 14.9276C59.3956 15.0611 59.0717 15.1278 58.674 15.1278ZM58.9553 14.0412C59.3217 14.0412 59.6314 13.9446 59.8842 13.7514C60.1399 13.5554 60.3331 13.2841 60.4638 12.9375C60.5973 12.5909 60.6641 12.1875 60.6641 11.7273C60.6641 11.2727 60.5987 10.875 60.468 10.5341C60.3374 10.1932 60.1456 9.92756 59.8928 9.73722C59.6399 9.54687 59.3274 9.4517 58.9553 9.4517C58.5717 9.4517 58.2521 9.55114 57.9964 9.75C57.7408 9.94886 57.5476 10.2202 57.4169 10.5639C57.2891 10.9077 57.2251 11.2955 57.2251 11.7273C57.2251 12.1648 57.2905 12.5582 57.4212 12.9077C57.5518 13.2571 57.745 13.5341 58.0007 13.7386C58.2592 13.9403 58.5774 14.0412 58.9553 14.0412Z" fill="#B54708"/>
</g>
</svg>
