<svg width="36" height="36" viewBox="0 0 36 36" fill="none" xmlns="http://www.w3.org/2000/svg">
<rect width="36" height="36" rx="8" fill="#EEEEFF"/>
<path d="M24.6667 15.9167V13.6667C24.6667 12.2665 24.6667 11.5665 24.3942 11.0317C24.1545 10.5613 23.7721 10.1788 23.3017 9.93915C22.7669 9.66666 22.0668 9.66666 20.6667 9.66666H15.3334C13.9332 9.66666 13.2332 9.66666 12.6984 9.93915C12.228 10.1788 11.8455 10.5613 11.6059 11.0317C11.3334 11.5665 11.3334 12.2665 11.3334 13.6667V22.3333C11.3334 23.7335 11.3334 24.4335 11.6059 24.9683C11.8455 25.4387 12.228 25.8212 12.6984 26.0608C13.2332 26.3333 13.9332 26.3333 15.3334 26.3333H19.6667M19.6667 17.1667H14.6667M16.3334 20.5H14.6667M21.3334 13.8333H14.6667M21.75 20.5019C21.8969 20.0845 22.1867 19.7325 22.5682 19.5083C22.9496 19.2841 23.3981 19.2022 23.8342 19.277C24.2703 19.3518 24.6659 19.5785 24.9508 19.917C25.2358 20.2555 25.3917 20.6839 25.3911 21.1264C25.3911 22.3755 23.5175 23 23.5175 23M23.5416 25.5H23.55" stroke="#5653FC" stroke-width="2" stroke-linecap="round" stroke-linejoin="round"/>
</svg>
